<svg width="61" height="61" viewBox="0 0 61 61" fill="none" xmlns="http://www.w3.org/2000/svg">
<path d="M14.2328 55.4767H46.7647C47.7302 55.4767 48.6078 55.0379 49.2514 54.3358C49.9243 53.6044 50.3339 52.5805 50.3339 51.4395V23.7347C50.3339 22.1257 49.0467 21.0725 47.4669 19.8145C47.1451 19.5512 46.794 19.2587 46.5014 19.0246L32.4296 7.26397C31.6982 6.64961 31.0839 6.29855 30.5573 6.29855C30.06 6.26929 29.5041 6.56184 28.802 7.1177L14.5546 19.0246C14.2621 19.2587 13.911 19.5512 13.5892 19.8145C12.0094 21.0725 10.7222 22.1257 10.7222 23.7347V51.4395C10.7222 52.5805 11.1318 53.6044 11.8046 54.3358C12.4482 55.0379 13.3259 55.4767 14.2913 55.4767H14.2328ZM46.7647 57.6709H14.2328C12.6238 57.6709 11.1903 56.9688 10.1371 55.7985C9.11314 54.6868 8.49878 53.1363 8.49878 51.4395V23.7347C8.49878 21.0725 10.1663 19.756 12.1849 18.1177C12.4775 17.8837 12.7701 17.6496 13.1211 17.3571L27.3685 5.45014C28.5094 4.51397 29.5334 4.07514 30.6158 4.1044C31.669 4.13365 32.6929 4.66025 33.8046 5.56716L47.8764 17.3278C48.2275 17.6204 48.5201 17.8544 48.8126 18.0884C50.8312 19.7267 52.4988 21.0432 52.4988 23.7055V51.4103C52.4988 53.1071 51.8552 54.6283 50.8605 55.7693C49.8073 56.9102 48.3738 57.6416 46.7647 57.6416V57.6709Z" fill="#D1D1D1"/>
</svg>
