<svg width="61" height="61" viewBox="0 0 61 61" fill="none" xmlns="http://www.w3.org/2000/svg">
<path fill-rule="evenodd" clip-rule="evenodd" d="M30.6213 5.00635C21.4613 5.00635 14.0066 12.5387 14.0066 21.8663C14.0066 26.4851 16.0814 29.4522 18.3471 32.2336C18.5625 32.4979 18.7826 32.764 19.0042 33.0319C19.9253 34.1454 20.8725 35.2906 21.6147 36.4761C22.5602 37.9865 23.2494 39.6702 23.2494 41.6766C23.2494 42.367 22.6898 42.9266 21.9994 42.9266C21.3091 42.9266 20.7494 42.367 20.7494 41.6766C20.7494 40.2854 20.2832 39.0606 19.4957 37.8027C18.8496 36.7707 18.0378 35.7881 17.1286 34.6878C16.8947 34.4048 16.6544 34.114 16.4089 33.8125C14.0532 30.9207 11.5066 27.3803 11.5066 21.8663C11.5066 11.1902 20.0485 2.50635 30.6213 2.50635C41.1941 2.50635 49.7361 11.1902 49.7361 21.8663C49.7361 27.3754 47.1953 30.9764 44.8401 33.9007C44.5707 34.2353 44.3075 34.5566 44.0523 34.8683C43.1692 35.9465 42.3803 36.9098 41.7478 37.912C40.9564 39.1659 40.4971 40.3569 40.4971 41.6766C40.4971 42.367 39.9375 42.9266 39.2471 42.9266C38.5568 42.9266 37.9971 42.367 37.9971 41.6766C37.9971 39.7237 38.6927 38.0686 39.6336 36.5777C40.3568 35.4318 41.2774 34.3087 42.1777 33.2104C42.419 32.916 42.6589 32.6234 42.8931 32.3326C45.1574 29.5211 47.2361 26.4896 47.2361 21.8663C47.2361 12.5387 39.7814 5.00635 30.6213 5.00635Z" fill="#D1D1D1"/>
<path fill-rule="evenodd" clip-rule="evenodd" d="M20.2566 46.3188C20.2566 45.6285 20.8162 45.0688 21.5066 45.0688H35.9441C37.3396 45.0688 38.4648 45.6142 39.2317 46.4931C39.9746 47.3445 40.3194 48.4343 40.3498 49.4696C40.3802 50.5016 40.1015 51.5876 39.4585 52.4467C38.7913 53.3383 37.7547 53.9438 36.4441 53.9438C36.1691 53.9438 35.6938 53.9478 35.0771 53.9529C33.0582 53.9697 29.5242 53.9991 26.5458 53.9436C25.8839 53.9313 25.4945 54.1449 25.2694 54.3725C25.0291 54.6155 24.8916 54.9599 24.8895 55.3303C24.8873 55.7003 25.0204 56.0478 25.2614 56.297C25.4883 56.5315 25.8858 56.7563 26.5691 56.7563C27.2776 56.7563 28.0843 56.7585 28.9245 56.7607C30.7117 56.7654 32.6508 56.7705 34.1196 56.7564C34.8099 56.7498 35.3749 57.304 35.3815 57.9943C35.3882 58.6847 34.8339 59.2497 34.1436 59.2563C32.6595 59.2706 30.6903 59.2654 28.8947 59.2606C28.0599 59.2584 27.2627 59.2563 26.5691 59.2563C25.2836 59.2563 24.2124 58.8081 23.4647 58.0353C22.7312 57.2771 22.3838 56.2829 22.3895 55.3157C22.3952 54.349 22.7538 53.3608 23.492 52.6145C24.2453 51.8527 25.3169 51.4203 26.5924 51.4441C29.5288 51.4988 32.9772 51.4702 35.0076 51.4533C35.6473 51.448 36.1462 51.4438 36.4441 51.4438C36.9148 51.4438 37.2297 51.2525 37.457 50.9488C37.7085 50.6126 37.8674 50.1049 37.8509 49.5431C37.8345 48.9846 37.648 48.4807 37.3479 48.1368C37.0718 47.8204 36.6423 47.5688 35.9441 47.5688H21.5066C20.8162 47.5688 20.2566 47.0092 20.2566 46.3188Z" fill="#D1D1D1"/>
</svg>
