<svg width="16" height="16" viewBox="0 0 16 16" fill="none" xmlns="http://www.w3.org/2000/svg">
<g clip-path="url(#clip0_748_342)">
<path d="M15.4746 9.33651C15.5568 8.88532 15.601 8.42411 15.601 7.9629C15.601 6.94022 15.4004 5.94761 15.0054 5.01516C14.6244 4.1128 14.077 3.30267 13.3811 2.60684C12.6911 1.91507 11.8732 1.36409 10.9728 0.984585C10.0384 0.589548 9.04776 0.389021 8.02508 0.389021C7.54382 0.389021 7.06055 0.435142 6.59132 0.525379C5.94204 0.181322 5.21858 0.000974947 4.48378 0C3.28664 0 2.15968 0.467226 1.31346 1.31345C0.89589 1.72887 0.56481 2.22295 0.339364 2.76712C0.113918 3.31129 -0.00142167 3.89475 1.32253e-05 4.48377C1.32253e-05 5.24577 0.196529 5.99574 0.563492 6.65748C0.489298 7.0866 0.449192 7.52575 0.449192 7.9629C0.449192 8.98559 0.649719 9.97819 1.04476 10.9106C1.42576 11.813 1.97119 12.6231 2.66701 13.319C3.36284 14.0148 4.17297 14.5602 5.07534 14.9412C6.00979 15.3363 7.00039 15.5368 8.02307 15.5368C8.46824 15.5368 8.91341 15.4967 9.35056 15.4185C10.0223 15.7975 10.7803 16 11.5563 16C12.7535 16 13.8804 15.5348 14.7267 14.6866C15.5749 13.8403 16.0401 12.7134 16.0401 11.5162C16.0421 10.7542 15.8456 10.0023 15.4746 9.33651ZM8.05516 12.6031C5.36409 12.6031 4.16093 11.2796 4.16093 10.289C4.16093 9.77967 4.53592 9.42474 5.05328 9.42474C6.2043 9.42474 5.90752 11.0791 8.05516 11.0791C9.15605 11.0791 9.76364 10.4815 9.76364 9.86991C9.76364 9.50294 9.58317 9.09387 8.85726 8.9154L6.46298 8.31783C4.53592 7.83457 4.185 6.79183 4.185 5.81326C4.185 3.77992 6.10003 3.01592 7.89875 3.01592C9.55509 3.01592 11.5082 3.93232 11.5082 5.15152C11.5082 5.6749 11.055 5.97769 10.5377 5.97769C9.55509 5.97769 9.73557 4.61812 7.75637 4.61812C6.77379 4.61812 6.23037 5.06329 6.23037 5.69896C6.23037 6.33463 7.0064 6.53716 7.68017 6.69157L9.45283 7.0846C11.3939 7.51773 11.8852 8.65071 11.8852 9.71751C11.8852 11.3678 10.6159 12.6031 8.05516 12.6031Z" fill="#D1D1D1"/>
</g>
<defs>
<clipPath id="clip0_748_342">
<rect width="16" height="16" fill="white"/>
</clipPath>
</defs>
</svg>
